<?xml version="1.0" standalone="no"?>
<!DOCTYPE svg PUBLIC "-//W3C//DTD SVG 20010904//EN"
 "http://www.w3.org/TR/2001/REC-SVG-20010904/DTD/svg10.dtd">
<svg version="1.0" xmlns="http://www.w3.org/2000/svg"
 width="900.000000pt" height="885.000000pt" viewBox="0 0 900.000000 885.000000"
 preserveAspectRatio="xMidYMid meet">
<metadata>
Created by potrace 1.10, written by Peter Selinger 2001-2011
</metadata>
<g transform="translate(0.000000,885.000000) scale(0.100000,-0.100000)"
fill="#000000" stroke="none">
<path d="M0 8705 c0 -128 2 -149 21 -182 22 -40 72 -123 149 -248 13 -22 30
-49 37 -60 7 -11 17 -29 23 -40 6 -11 19 -33 30 -50 11 -16 24 -39 30 -50 6
-11 19 -33 30 -50 11 -16 24 -39 30 -50 6 -11 19 -33 30 -50 11 -16 24 -39 30
-50 6 -11 19 -33 30 -50 11 -16 24 -39 30 -50 6 -11 19 -33 30 -50 11 -16 24
-39 30 -50 6 -11 19 -33 30 -50 11 -16 24 -39 30 -50 6 -11 19 -33 30 -50 11
-16 24 -39 30 -50 6 -11 19 -33 30 -50 11 -16 23 -37 27 -45 4 -8 18 -31 31
-50 13 -19 28 -44 33 -55 5 -11 47 -81 92 -155 l83 -135 166 -3 165 -2 34 38
c50 56 71 82 130 158 30 38 59 75 66 82 7 7 34 41 60 75 26 34 50 64 53 67 8
7 115 139 168 209 24 31 59 75 79 99 48 58 92 112 165 207 34 44 67 85 74 90
6 6 33 38 60 73 27 35 75 96 107 135 31 40 84 106 117 147 33 41 87 109 120
150 33 41 87 109 120 150 33 41 76 95 95 119 19 24 35 50 35 57 0 12 -221 14
-1380 14 l-1380 0 0 -145z"/>
<path d="M3060 8836 c0 -7 -16 -33 -35 -57 -19 -24 -63 -80 -97 -124 -34 -44
-65 -82 -68 -85 -4 -3 -31 -37 -61 -75 -30 -39 -71 -91 -91 -115 -55 -67 -276
-346 -331 -417 -26 -34 -53 -68 -60 -75 -7 -7 -35 -42 -62 -78 -27 -36 -59
-76 -72 -90 -12 -14 -44 -53 -70 -87 -26 -34 -77 -99 -113 -145 -35 -46 -69
-87 -76 -93 -6 -5 -33 -39 -60 -75 -26 -36 -54 -71 -61 -78 -7 -7 -34 -41 -60
-75 -26 -34 -67 -86 -90 -115 -24 -29 -41 -57 -38 -63 4 -5 355 -9 901 -9
l894 0 0 -464 0 -464 40 -16 c22 -9 49 -16 58 -16 10 0 38 -6 63 -14 24 -7 72
-21 107 -30 231 -60 373 -97 453 -120 65 -19 99 -20 99 -5 0 13 -127 404 -146
447 -8 18 -14 39 -14 47 0 8 -6 29 -14 47 -8 18 -49 141 -91 273 -42 132 -83
256 -90 275 -7 19 -21 60 -31 90 -9 30 -22 71 -29 90 -7 19 -55 163 -105 320
-51 157 -98 301 -105 320 -28 80 -37 107 -45 135 -4 17 -12 41 -18 55 -6 14
-51 153 -102 310 -50 157 -98 300 -106 318 -8 18 -14 39 -14 47 0 8 -6 29 -14
47 -21 51 -47 133 -49 157 -1 20 -6 21 -99 21 -76 0 -98 -3 -98 -14z"/>
<path d="M3563 8823 c4 -24 18 -67 67 -208 6 -16 20 -59 31 -95 12 -36 27 -81
34 -100 27 -75 37 -106 45 -135 8 -29 19 -61 45 -135 7 -19 102 -305 210 -635
108 -330 203 -616 210 -635 26 -73 37 -106 45 -135 5 -16 13 -43 19 -60 7 -16
60 -176 119 -355 59 -179 112 -327 117 -330 6 -3 25 42 44 100 18 58 39 121
46 140 7 19 26 80 44 135 44 144 88 281 136 430 23 72 57 177 75 235 18 58 52
164 75 235 23 72 57 177 75 235 17 58 38 121 45 140 7 19 28 82 46 140 78 253
92 297 104 330 7 19 28 82 45 140 33 103 86 271 148 462 18 54 32 104 32 113
0 13 -105 15 -931 15 l-931 0 5 -27z"/>
<path d="M5720 8835 c0 -8 -6 -29 -14 -47 -7 -18 -21 -60 -31 -93 -9 -33 -23
-76 -30 -95 -7 -19 -21 -62 -30 -95 -10 -33 -23 -76 -30 -95 -7 -19 -19 -57
-28 -85 -38 -127 -81 -263 -92 -295 -7 -19 -20 -60 -29 -90 -9 -30 -29 -95
-45 -145 -15 -49 -43 -137 -61 -195 -17 -58 -38 -121 -45 -140 -7 -19 -27 -82
-45 -140 -18 -58 -45 -143 -59 -190 -15 -47 -36 -112 -45 -145 -10 -33 -24
-76 -31 -95 -7 -19 -20 -60 -29 -90 -8 -30 -29 -95 -44 -145 -16 -49 -44 -137
-62 -195 -17 -58 -38 -121 -45 -140 -7 -19 -21 -62 -31 -95 -18 -60 -44 -146
-103 -327 -29 -91 -38 -138 -26 -138 3 0 152 50 332 111 181 60 342 114 360
118 17 5 48 17 70 27 l38 19 3 478 c2 371 5 477 15 477 6 0 290 0 630 0 681 0
655 -3 608 60 -11 16 -21 31 -21 34 0 3 -40 72 -88 153 -49 82 -91 156 -95
163 -4 8 -16 29 -27 45 -11 17 -24 39 -30 50 -5 11 -14 27 -20 35 -15 23 -215
364 -223 380 -4 8 -16 29 -27 45 -11 17 -24 39 -30 50 -5 11 -14 27 -20 35 -5
8 -50 85 -100 170 -50 85 -95 162 -100 170 -6 8 -15 24 -20 35 -6 11 -19 34
-30 50 -11 17 -24 39 -30 50 -6 11 -19 34 -30 50 -11 17 -23 37 -27 45 -4 8
-33 59 -65 113 -32 54 -58 105 -58 113 0 9 -11 14 -30 14 -20 0 -30 -5 -30
-15z"/>
<path d="M6050 8835 c0 -23 1087 -1832 1105 -1839 27 -10 395 -7 415 4 16 8
119 130 203 239 15 20 36 45 45 56 32 37 137 167 180 223 23 31 46 59 50 62 4
3 29 33 55 67 26 34 53 68 60 75 6 7 75 92 152 188 77 96 146 181 152 188 7 7
34 41 60 75 26 34 58 73 70 87 26 30 73 89 155 195 34 44 67 85 74 90 6 6 32
37 57 70 73 94 92 115 105 115 8 0 12 20 12 60 l0 60 -1475 0 c-1294 0 -1475
-2 -1475 -15z"/>
<path d="M8922 8278 c-26 -34 -61 -78 -78 -98 -31 -36 -327 -404 -377 -469
-15 -20 -44 -55 -64 -79 -19 -23 -51 -61 -69 -85 -42 -51 -141 -176 -209 -261
-101 -127 -170 -212 -192 -236 -52 -56 -67 -55 525 -58 l542 -2 0 675 c0 594
-2 675 -15 675 -8 0 -36 -28 -63 -62z"/>
<path d="M3 7535 l2 -550 323 -3 c287 -2 322 -1 322 13 0 9 -81 151 -180 316
-99 166 -180 302 -180 304 0 2 -12 21 -26 42 -14 21 -30 47 -35 58 -5 11 -18
34 -29 50 -11 17 -24 39 -30 50 -6 11 -19 34 -30 50 -11 17 -24 39 -30 50 -6
11 -19 34 -30 50 -11 17 -24 39 -29 50 -6 11 -19 31 -30 45 l-21 25 3 -550z"/>
<path d="M3415 5778 c-10 -27 0 -691 10 -695 6 -2 20 5 30 15 11 10 43 33 70
52 28 18 93 66 145 105 52 39 108 79 125 90 16 10 34 22 40 27 19 17 262 193
281 204 13 8 16 15 9 22 -9 10 -126 45 -205 62 -19 4 -71 17 -115 30 -44 12
-105 29 -135 37 -30 9 -66 18 -80 20 -14 3 -45 11 -70 18 -82 24 -100 26 -105
13z"/>
<path d="M5430 5733 c-52 -19 -108 -38 -125 -43 -60 -17 -437 -149 -443 -154
-3 -4 -1 -10 4 -15 23 -21 173 -131 178 -131 3 0 61 -40 128 -90 326 -239 378
-274 389 -263 5 5 8 160 7 369 -3 419 12 382 -138 327z"/>
<path d="M4550 5273 c0 -43 -6 -199 -15 -348 -8 -148 -21 -423 -30 -610 -21
-467 -42 -922 -60 -1285 -8 -168 -17 -375 -20 -460 -3 -85 -8 -170 -11 -187
-7 -38 13 -52 49 -35 21 9 64 27 252 102 41 17 110 44 153 61 42 17 95 38 117
46 22 9 54 21 70 28 17 7 50 21 75 30 25 9 59 23 75 30 17 7 48 19 70 28 42
16 156 61 240 95 l50 21 3 915 2 915 -22 21 c-12 11 -56 44 -98 72 -41 29
-136 97 -211 153 -75 55 -212 155 -305 222 -93 68 -212 154 -265 193 -53 38
-102 70 -108 70 -7 0 -11 -27 -11 -77z"/>
<path d="M4191 5273 c-50 -38 -175 -129 -278 -203 -102 -74 -257 -188 -344
-252 l-159 -118 0 -1015 0 -1015 63 -29 c34 -16 122 -54 196 -86 74 -31 142
-60 150 -65 9 -4 33 -14 54 -23 73 -32 151 -66 220 -97 26 -12 53 -20 61 -17
14 6 22 82 31 317 5 127 15 347 50 1090 8 173 22 464 30 645 26 557 36 756 42
848 5 73 4 87 -9 87 -8 0 -56 -30 -107 -67z"/>
<path d="M5530 2517 c-14 -5 -38 -15 -55 -22 -16 -7 -48 -20 -70 -28 -22 -8
-76 -29 -120 -47 -44 -18 -98 -39 -120 -47 -22 -8 -53 -21 -70 -28 -16 -7 -50
-20 -75 -30 -25 -9 -58 -23 -75 -30 -16 -7 -48 -19 -70 -28 -41 -15 -132 -51
-265 -105 -41 -17 -83 -33 -92 -36 -36 -11 -27 -23 169 -239 19 -21 73 -81
120 -135 47 -53 101 -114 120 -135 19 -21 73 -81 120 -135 48 -53 89 -99 92
-102 3 -3 55 -61 116 -130 60 -69 126 -143 146 -165 20 -22 62 -69 94 -105 31
-36 61 -66 66 -68 11 -4 12 1615 2 1621 -5 3 -19 0 -33 -6z"/>
<path d="M3417 2383 c-4 -3 -7 -273 -7 -600 0 -468 3 -593 13 -593 6 0 23 17
37 38 13 20 68 97 122 170 54 73 98 135 98 138 0 3 6 12 13 19 6 8 47 63 90
122 200 278 259 359 273 376 33 40 23 56 -51 88 -64 28 -98 42 -195 86 -19 9
-51 22 -70 31 -19 8 -42 18 -51 23 -9 4 -61 26 -115 49 -54 23 -103 46 -108
51 -12 11 -40 12 -49 2z"/>
<path d="M4243 1918 c-16 -24 -59 -86 -98 -140 -38 -53 -106 -147 -150 -208
-107 -151 -213 -298 -310 -433 -156 -216 -189 -263 -232 -323 l-43 -62 0 -376
0 -376 1080 0 1080 0 0 261 c0 297 11 255 -104 384 -35 39 -103 115 -152 170
-48 55 -102 116 -120 135 -17 19 -71 80 -119 135 -131 149 -280 317 -364 410
-20 22 -67 75 -104 118 -37 44 -73 85 -80 92 -25 25 -146 162 -183 207 -21 26
-47 47 -56 47 -10 1 -30 -17 -45 -41z"/>
</g>
</svg>
